<svg xmlns="http://www.w3.org/2000/svg" style="display:none">

<symbol id="icon-x" viewBox="0 0 20 20" fill="none">
  <path fill-rule="evenodd" clip-rule="evenodd"
    d="M10 2.5C14.1421 2.5 17.5 5.85786 17.5 10C17.5 14.1421 14.1421 17.5 10 17.5C5.85786 17.5 2.5 14.1421 2.5 10C2.5 5.85786 5.85786 2.5 10 2.5ZM10 8.58594L7.37402 5.95996L5.95996 7.37402L8.58594 10L5.95996 12.626L7.37402 14.04L10 11.4141L12.626 14.04L14.04 12.626L11.4141 10L14.04 7.37402L12.626 5.95996L10 8.58594Z"
    fill="currentColor"/>
</symbol>

<symbol id="icon-eye" viewBox="0 0 18 12" fill="none">
  <path d="M8.77051 0C12.4061 0.000137388 15.5379 3.21046 16.958 4.93457C17.3462 5.40583 17.541 5.6412 17.541 6C17.541 6.3588 17.3462 6.59417 16.958 7.06543C15.5379 8.78954 12.4061 11.9999 8.77051 12C5.13478 12 2.00212 8.78958 0.582031 7.06543C0.194019 6.59434 8.73441e-09 6.35874 0 6C9.86307e-09 5.64126 0.194019 5.40566 0.582031 4.93457C2.00212 3.21042 5.13478 0 8.77051 0ZM8.77051 3C7.11365 3 5.77051 4.34315 5.77051 6C5.77051 7.65685 7.11365 9 8.77051 9C10.4273 8.99988 11.7705 7.65678 11.7705 6C11.7705 4.34322 10.4273 3.00012 8.77051 3Z" fill="currentColor"/>
</symbol>

<symbol id="icon-eye-hide" viewBox="0 0 24 24" fill="none">
  <path fill-rule="evenodd" clip-rule="evenodd"
    d="M9.39478 10.5156C9.14471 10.9536 9.00024 11.4596 9.00024 12C9.00024 13.6569 10.3434 15 12.0002 15C12.5405 15 13.0458 14.8544 13.4836 14.6045L15.7864 16.9072C14.6353 17.5542 13.353 17.9999 12.0002 18C8.36451 18 5.23186 14.7896 3.81177 13.0654C3.42376 12.5943 3.22974 12.3587 3.22974 12C3.22974 11.6413 3.42376 11.4057 3.81177 10.9346C4.48529 10.1168 5.54575 8.96669 6.8606 7.98145L9.39478 10.5156ZM12.0002 6C15.6359 6.00014 18.7677 9.21046 20.1877 10.9346C20.5759 11.4058 20.7708 11.6412 20.7708 12C20.7708 12.3588 20.5759 12.5942 20.1877 13.0654C19.7134 13.6413 19.046 14.3808 18.2346 15.1133L14.9963 11.875C14.9325 10.3173 13.682 9.0664 12.1243 9.00293L9.57837 6.45703C10.3491 6.17272 11.161 6 12.0002 6Z"
    fill="currentColor"/>
  <path d="M5 2L21 18" stroke="currentColor" stroke-width="2"/>
</symbol>

</svg>
