<svg width="12" height="12" viewBox="0 0 12 12" fill="none" xmlns="http://www.w3.org/2000/svg">
<g clip-path="url(#clip0_219_3906)">
<path d="M5.76119 1.14717C5.78309 1.10291 5.81693 1.06565 5.85889 1.03961C5.90085 1.01356 5.94925 0.999756 5.99863 0.999756C6.04801 0.999756 6.09642 1.01356 6.13837 1.03961C6.18033 1.06565 6.21417 1.10291 6.23607 1.14717L7.3908 3.48612C7.46688 3.64007 7.57917 3.77326 7.71804 3.87426C7.85691 3.97526 8.01822 4.04105 8.18812 4.06598L10.7705 4.4439C10.8194 4.45099 10.8654 4.47163 10.9032 4.50348C10.941 4.53534 10.9692 4.57714 10.9845 4.62416C10.9998 4.67118 11.0016 4.72153 10.9898 4.76954C10.9779 4.81754 10.9529 4.86127 10.9175 4.89579L9.04992 6.71436C8.92675 6.83439 8.8346 6.98254 8.7814 7.14608C8.72819 7.30961 8.71552 7.48363 8.74449 7.65314L9.18538 10.2225C9.19402 10.2715 9.18874 10.3218 9.17014 10.3679C9.15154 10.4139 9.12036 10.4538 9.08018 10.483C9.04 10.5122 8.99242 10.5295 8.94287 10.5329C8.89333 10.5364 8.84381 10.5258 8.79997 10.5025L6.49151 9.28876C6.33941 9.20889 6.17018 9.16716 5.99838 9.16716C5.82658 9.16716 5.65735 9.20889 5.50525 9.28876L3.19729 10.5025C3.15346 10.5257 3.10401 10.5361 3.05455 10.5326C3.00508 10.5291 2.9576 10.5118 2.9175 10.4826C2.8774 10.4534 2.84628 10.4136 2.8277 10.3676C2.80912 10.3216 2.80381 10.2714 2.81238 10.2225L3.25277 7.65364C3.28186 7.48405 3.26926 7.30992 3.21605 7.14629C3.16284 6.98265 3.07062 6.83441 2.94734 6.71436L1.07978 4.89629C1.04409 4.86181 1.01879 4.81801 1.00678 4.76986C0.994768 4.72171 0.99652 4.67115 1.01184 4.62395C1.02715 4.57675 1.05542 4.5348 1.09342 4.50287C1.13141 4.47095 1.17761 4.45034 1.22675 4.4434L3.80864 4.06598C3.97873 4.04124 4.14026 3.97553 4.27933 3.87452C4.41839 3.77351 4.53083 3.64022 4.60696 3.48612L5.76119 1.14717Z" fill="#FFD230" stroke="#FFD230" stroke-width="0.999766" stroke-linecap="round" stroke-linejoin="round"/>
</g>
<defs>
<clipPath id="clip0_219_3906">
<rect width="11.9972" height="11.9972" fill="white"/>
</clipPath>
</defs>
</svg>
